<?xml version="1.0" encoding="UTF-8" standalone="no"?>
<!-- Generator: Adobe Illustrator 17.1.0, SVG Export Plug-In . SVG Version: 6.00 Build 0)  -->

<svg
   xmlns:dc="http://purl.org/dc/elements/1.1/"
   xmlns:cc="http://creativecommons.org/ns#"
   xmlns:rdf="http://www.w3.org/1999/02/22-rdf-syntax-ns#"
   xmlns:svg="http://www.w3.org/2000/svg"
   xmlns="http://www.w3.org/2000/svg"
   xmlns:sodipodi="http://sodipodi.sourceforge.net/DTD/sodipodi-0.dtd"
   xmlns:inkscape="http://www.inkscape.org/namespaces/inkscape"
   version="1.1"
   id="Facebook"
   x="0px"
   y="0px"
   viewBox="0 0 128 128"
   enable-background="new 0 0 128 128"
   xml:space="preserve"
   sodipodi:docname="Facebook.svg"
   inkscape:version="0.92.3 (2405546, 2018-03-11)"><metadata
   id="metadata4031"><rdf:RDF><cc:Work
       rdf:about=""><dc:format>image/svg+xml</dc:format><dc:type
         rdf:resource="http://purl.org/dc/dcmitype/StillImage" /><dc:title></dc:title></cc:Work></rdf:RDF></metadata><defs
   id="defs4029" /><sodipodi:namedview
   pagecolor="#ffffff"
   bordercolor="#666666"
   borderopacity="1"
   objecttolerance="10"
   gridtolerance="10"
   guidetolerance="10"
   inkscape:pageopacity="0"
   inkscape:pageshadow="2"
   inkscape:window-width="1280"
   inkscape:window-height="751"
   id="namedview4027"
   showgrid="false"
   inkscape:pagecheckerboard="true"
   inkscape:zoom="4.21875"
   inkscape:cx="64"
   inkscape:cy="64"
   inkscape:window-x="0"
   inkscape:window-y="0"
   inkscape:window-maximized="1"
   inkscape:current-layer="g4024" />
<g
   id="g4024">
	<circle
   id="facebook-back"
   fill="#262626"
   cx="64"
   cy="64"
   r="64"
   style="fill:#ffffff" />
	<path
   id="facebook-facebook"
   fill="#FFFFFF"
   d="M95.1367,29H32.8638C30.7295,29,29,30.729,29,32.8638v62.2729   C29,97.2705,30.7295,99,32.8638,99h33.5249V71.8926h-9.1221v-10.565h9.1221v-7.7905c0-9.0415,5.5224-13.9648,13.5888-13.9648   c3.8623,0,7.1827,0.2876,8.1504,0.4165v9.4487l-5.5927,0.0024c-4.3877,0-5.2364,2.0845-5.2364,5.1431v6.7446h10.461l-1.3623,10.565   h-9.0987V99h17.8379C97.2705,99,99,97.2705,99,95.1367V32.8638C99,30.729,97.2705,29,95.1367,29z"
   style="fill:#000000" />
</g>
</svg>