<?xml version="1.0" encoding="UTF-8" standalone="no"?>
<!-- Generator: Adobe Illustrator 17.1.0, SVG Export Plug-In . SVG Version: 6.00 Build 0)  -->

<svg
   xmlns:dc="http://purl.org/dc/elements/1.1/"
   xmlns:cc="http://creativecommons.org/ns#"
   xmlns:rdf="http://www.w3.org/1999/02/22-rdf-syntax-ns#"
   xmlns:svg="http://www.w3.org/2000/svg"
   xmlns="http://www.w3.org/2000/svg"
   xmlns:sodipodi="http://sodipodi.sourceforge.net/DTD/sodipodi-0.dtd"
   xmlns:inkscape="http://www.inkscape.org/namespaces/inkscape"
   version="1.1"
   id="Instagram"
   x="0px"
   y="0px"
   viewBox="0 0 128 128"
   enable-background="new 0 0 128 128"
   xml:space="preserve"
   sodipodi:docname="Instagram.svg"
   inkscape:version="0.92.3 (2405546, 2018-03-11)"><metadata
   id="metadata4087"><rdf:RDF><cc:Work
       rdf:about=""><dc:format>image/svg+xml</dc:format><dc:type
         rdf:resource="http://purl.org/dc/dcmitype/StillImage" /><dc:title></dc:title></cc:Work></rdf:RDF></metadata><defs
   id="defs4085" /><sodipodi:namedview
   pagecolor="#ffffff"
   bordercolor="#666666"
   borderopacity="1"
   objecttolerance="10"
   gridtolerance="10"
   guidetolerance="10"
   inkscape:pageopacity="0"
   inkscape:pageshadow="2"
   inkscape:window-width="1280"
   inkscape:window-height="751"
   id="namedview4083"
   showgrid="false"
   inkscape:pagecheckerboard="true"
   inkscape:zoom="4.21875"
   inkscape:cx="64"
   inkscape:cy="64"
   inkscape:window-x="0"
   inkscape:window-y="0"
   inkscape:window-maximized="1"
   inkscape:current-layer="g4080" />
<g
   id="g4080">
	<circle
   id="instagram-back"
   fill="#262626"
   cx="64"
   cy="64"
   r="64"
   style="fill:#ffffff" />
	<path
   id="instagram-instagram"
   fill-rule="evenodd"
   clip-rule="evenodd"
   fill="#FFFFFF"
   d="M91.5713,58.4829h-6.2402   c0.4541,1.7651,0.7236,3.6089,0.7236,5.5156c0,12.1831-9.875,22.0562-22.0552,22.0562c-12.1797,0-22.0542-9.8731-22.0542-22.0562   c0-1.9067,0.2695-3.7505,0.7246-5.5156h-6.2407v30.3286c0,1.5205,1.2349,2.7549,2.7598,2.7549h49.6215   c1.5254,0,2.7608-1.2344,2.7608-2.7549V58.4829z M91.5713,39.186c0-1.5219-1.2354-2.7568-2.7608-2.7568H80.542   c-1.5225,0-2.7568,1.2349-2.7568,2.7568v8.272c0,1.522,1.2343,2.7568,2.7568,2.7568h8.2685c1.5254,0,2.7608-1.2348,2.7608-2.7568   V39.186z M63.9995,50.2148c-7.6133,0-13.7847,6.1705-13.7847,13.7837c0,7.6128,6.1714,13.7867,13.7847,13.7867   c7.6138,0,13.7857-6.1739,13.7857-13.7867C77.7852,56.3853,71.6133,50.2148,63.9995,50.2148 M91.5713,99.8398H36.4292   c-4.5664,0-8.269-3.7041-8.269-8.2734V36.4292c0-4.5669,3.7026-8.269,8.269-8.269h55.1421c4.5674,0,8.2685,3.7021,8.2685,8.269   v55.1372C99.8398,96.1357,96.1387,99.8398,91.5713,99.8398"
   style="fill:#000000" />
</g>
</svg>