<?xml version="1.0" encoding="UTF-8" standalone="no"?>
<svg
   xmlns:dc="http://purl.org/dc/elements/1.1/"
   xmlns:cc="http://creativecommons.org/ns#"
   xmlns:rdf="http://www.w3.org/1999/02/22-rdf-syntax-ns#"
   xmlns:svg="http://www.w3.org/2000/svg"
   xmlns="http://www.w3.org/2000/svg"
   xmlns:sodipodi="http://sodipodi.sourceforge.net/DTD/sodipodi-0.dtd"
   xmlns:inkscape="http://www.inkscape.org/namespaces/inkscape"
   id="master-artboard"
   viewBox="0 0 500.00001 250"
   version="1.1"
   x="0px"
   y="0px"
   width="500"
   height="250"
   enable-background="new 0 0 335.986 235.19"
   sodipodi:docname="services4.svg"
   inkscape:version="0.92.3 (2405546, 2018-03-11)">
  <metadata
     id="metadata255">
    <rdf:RDF>
      <cc:Work
         rdf:about="">
        <dc:format>image/svg+xml</dc:format>
        <dc:type
           rdf:resource="http://purl.org/dc/dcmitype/StillImage" />
        <dc:title></dc:title>
      </cc:Work>
    </rdf:RDF>
  </metadata>
  <defs
     id="defs253" />
  <sodipodi:namedview
     pagecolor="#ffffff"
     bordercolor="#666666"
     borderopacity="1"
     objecttolerance="10"
     gridtolerance="10"
     guidetolerance="10"
     inkscape:pageopacity="0"
     inkscape:pageshadow="2"
     inkscape:window-width="1280"
     inkscape:window-height="751"
     id="namedview251"
     showgrid="false"
     inkscape:zoom="1.003444"
     inkscape:cx="167.993"
     inkscape:cy="237.18314"
     inkscape:window-x="0"
     inkscape:window-y="0"
     inkscape:window-maximized="1"
     inkscape:current-layer="master-artboard"
     showguides="true"
     inkscape:guide-bbox="true" />
  <rect
     id="ee-background"
     x="0"
     y="14.809998"
     width="335.98599"
     height="235.19"
     style="fill:#ffffff;fill-opacity:0" />
  <path
     d="M 34.976355,27.881555 H 491.27268 V 243.45684 H 34.976355 Z"
     id="path5"
     inkscape:connector-curvature="0"
     style="fill:#34525c;stroke-width:3.16896653" />
  <path
     d="M 13.950262,15.433885 H 470.24658 V 231.00917 H 13.950262 Z"
     stroke-miterlimit="10"
     id="path27"
     inkscape:connector-curvature="0"
     style="fill:#ffffff;stroke:#34525c;stroke-width:6.33793306;stroke-miterlimit:10" />
  <path
     d="M 16.764305,18.336655 H 467.41666 v 40.13813 H 16.764305 Z"
     id="path29"
     inkscape:connector-curvature="0"
     style="fill:#e6e6e6;stroke-width:3.16896653" />
  <path
     d="m 46.768076,38.345475 a 7.6277024,7.6277024 0 0 1 -7.627702,7.62771 7.6277024,7.6277024 0 0 1 -7.627702,-7.62771 7.6277024,7.6277024 0 0 1 7.627702,-7.6277 7.6277024,7.6277024 0 0 1 7.627702,7.6277 z"
     stroke-miterlimit="10"
     id="path31"
     inkscape:connector-curvature="0"
     style="fill:#ffffff;stroke:#34525c;stroke-width:6.33793306;stroke-miterlimit:10" />
  <path
     d="m 75.513775,38.345475 a 7.6245334,7.6245334 0 0 1 -7.624534,7.62454 7.6245334,7.6245334 0 0 1 -7.624533,-7.62454 7.6245334,7.6245334 0 0 1 7.624533,-7.62453 7.6245334,7.6245334 0 0 1 7.624534,7.62453 z"
     stroke-miterlimit="10"
     id="path33"
     inkscape:connector-curvature="0"
     style="fill:#ffffff;stroke:#34525c;stroke-width:6.33793306;stroke-miterlimit:10" />
  <path
     d="m 104.2563,38.345475 a 7.6213644,7.6213644 0 0 1 -7.621365,7.62137 7.6213644,7.6213644 0 0 1 -7.621366,-7.62137 7.6213644,7.6213644 0 0 1 7.621366,-7.62136 7.6213644,7.6213644 0 0 1 7.621365,7.62136 z"
     stroke-miterlimit="10"
     id="path35"
     inkscape:connector-curvature="0"
     style="fill:#ffffff;stroke:#34525c;stroke-width:6.33793306;stroke-miterlimit:10" />
  <path
     d="M 30.863037,97.297825 H 454.51266 V 213.94115 H 30.863037 Z"
     style="fill:#ff5d4c;stroke-width:3.16896653"
     id="path81"
     inkscape:connector-curvature="0" />
  <path
     d="m 148.21304,114.66374 h 71.31125 v 5.85308 h -71.31125 z"
     id="path83"
     inkscape:connector-curvature="0"
     style="fill:#34525c;stroke-width:3.16896653" />
  <path
     d="m 148.21304,133.67753 h 53.68863 v 5.85309 h -53.68863 z"
     id="path85"
     inkscape:connector-curvature="0"
     style="fill:#34525c;stroke-width:3.16896653" />
  <path
     d="m 148.21304,171.70196 h 16.37405 v 5.85308 h -16.37405 z"
     id="path87"
     inkscape:connector-curvature="0"
     style="fill:#34525c;stroke-width:3.16896653" />
  <path
     d="m 181.88331,171.70196 h 54.40481 v 5.85308 h -54.40481 z"
     id="path89"
     inkscape:connector-curvature="0"
     style="fill:#34525c;stroke-width:3.16896653" />
  <path
     d="m 148.21304,190.71576 h 66.68139 v 5.85308 h -66.68139 z"
     id="path91"
     inkscape:connector-curvature="0"
     style="fill:#34525c;stroke-width:3.16896653" />
  <path
     d="m 345.50972,190.71576 h 89.89091 v 5.85308 h -89.89091 z"
     id="path93"
     inkscape:connector-curvature="0"
     style="fill:#34525c;stroke-width:3.16896653" />
  <path
     d="m 202.76362,114.66374 h 33.5245 v 5.85308 h -33.5245 z"
     id="path95"
     inkscape:connector-curvature="0"
     style="fill:#34525c;stroke-width:3.16896653" />
  <path
     d="m 347.33188,114.66374 h 37.50155 v 5.85308 h -37.50155 z"
     id="path97"
     inkscape:connector-curvature="0"
     style="fill:#34525c;stroke-width:3.16896653" />
  <path
     d="m 366.08265,152.68816 h 69.32115 v 5.85625 h -69.32115 z"
     id="path99"
     inkscape:connector-curvature="0"
     style="fill:#34525c;stroke-width:3.16896653" />
  <path
     d="m 419.03292,171.70196 h 16.37405 v 5.85308 h -16.37405 z"
     id="path101"
     inkscape:connector-curvature="0"
     style="fill:#34525c;stroke-width:3.16896653" />
  <path
     d="m 347.33188,171.70196 h 54.40482 v 5.85308 h -54.40482 z"
     id="path103"
     inkscape:connector-curvature="0"
     style="fill:#34525c;stroke-width:3.16896653" />
  <path
     d="m 393.2914,114.66374 h 28.24817 v 5.85308 H 393.2914 Z"
     id="path105"
     inkscape:connector-curvature="0"
     style="fill:#34525c;stroke-width:3.16896653" />
  <path
     d="m 128.11228,182.27997 c 0,5.2288 -4.2781,9.5069 -9.50689,9.5069 H 59.421763 c -5.228795,0 -9.5069,-4.2781 -9.5069,-9.5069 v -59.18678 c 0,-5.2288 4.278105,-9.5069 9.5069,-9.5069 h 59.183627 c 5.22879,0 9.50689,4.2781 9.50689,9.5069 z"
     id="path147"
     inkscape:connector-curvature="0"
     style="fill:#ffffff;stroke-width:3.16896653" />
  <path
     stroke-miterlimit="10"
     d="m 128.11228,182.27997 c 0,5.2288 -4.2781,9.5069 -9.50689,9.5069 H 59.421763 c -5.228795,0 -9.5069,-4.2781 -9.5069,-9.5069 v -59.18678 c 0,-5.2288 4.278105,-9.5069 9.5069,-9.5069 h 59.183627 c 5.22879,0 9.50689,4.2781 9.50689,9.5069 z"
     id="path149"
     inkscape:connector-curvature="0"
     style="fill:none;stroke:#34525c;stroke-width:6.33793306;stroke-miterlimit:10" />
  <path
     stroke-miterlimit="10"
     d="m 110.78754,138.1331 -6.88299,-5.5647 c -0.71936,-0.57992 -1.79364,-0.46584 -2.37039,0.25985 l -18.798311,23.27289 -7.342495,-6.68018 c -0.709849,-0.63379 -1.774621,-0.5926 -2.405246,0.10774 l -5.941812,6.53758 c -0.624286,0.68767 -0.586259,1.75244 0.110914,2.38623 l 15.740257,14.30472 c 0.687665,0.62745 1.720748,0.5514 2.319683,-0.19014 l 5.539354,-6.91785 c 0.01901,0 0.01901,-0.019 0.01901,-0.019 l 20.268716,-25.11089 c 0.59894,-0.7352 0.48168,-1.81898 -0.25669,-2.38623 z"
     id="path151"
     inkscape:connector-curvature="0"
     style="fill:#ffffff;stroke:#34525c;stroke-width:6.33793306;stroke-miterlimit:10" />
  <path
     d="m 330.11489,182.2768 c 0,5.2288 -4.27811,9.5069 -9.5069,9.5069 h -59.18045 c -5.2288,0 -9.5069,-4.2781 -9.5069,-9.5069 v -59.18044 c 0,-5.2288 4.2781,-9.5069 9.5069,-9.5069 h 59.18045 c 5.22879,0 9.5069,4.2781 9.5069,9.5069 z"
     id="path169"
     inkscape:connector-curvature="0"
     style="fill:#ffffff;stroke-width:3.16896653" />
  <path
     stroke-miterlimit="10"
     d="m 330.11489,182.2768 c 0,5.2288 -4.27811,9.5069 -9.5069,9.5069 h -59.18045 c -5.2288,0 -9.5069,-4.2781 -9.5069,-9.5069 v -59.18044 c 0,-5.2288 4.2781,-9.5069 9.5069,-9.5069 h 59.18045 c 5.22879,0 9.5069,4.2781 9.5069,9.5069 z"
     id="path171"
     inkscape:connector-curvature="0"
     style="fill:none;stroke:#34525c;stroke-width:6.33793306;stroke-miterlimit:10" />
  <path
     stroke-miterlimit="10"
     d="M 310.86658,162.86688 300.68786,152.685 310.86658,142.52846 c 1.05844,-1.07745 1.03942,-2.81088 0,-3.88199 l -5.80871,-5.7992 c -1.07428,-1.06795 -2.82038,-1.06795 -3.87565,0 l -10.17238,10.15019 -10.15654,-10.15019 c -1.06477,-1.06795 -2.80137,-1.06795 -3.87565,0 l -5.80237,5.7992 c -1.06478,1.07111 -1.06478,2.80454 0,3.88199 l 10.16287,10.15654 -10.16287,10.18188 c -1.06478,1.05844 -1.06478,2.7982 0,3.85981 l 5.80237,5.80237 c 1.05527,1.06478 2.81088,1.06478 3.87565,0 l 10.15654,-10.15653 10.17238,10.16287 c 1.05527,1.05844 2.80137,1.05844 3.87565,-0.006 l 5.80871,-5.80237 c 1.05844,-1.06161 1.05844,-2.81722 0,-3.85981 z"
     id="path173"
     inkscape:connector-curvature="0"
     style="fill:#ffffff;stroke:#34525c;stroke-width:6.33793306;stroke-miterlimit:10" />
  <path
     d="m 122.4018,69.122515 h 63.59165 v 5.85308 H 122.4018 Z"
     id="path175"
     inkscape:connector-curvature="0"
     style="fill:#34525c;stroke-width:3.16896653" />
  <path
     d="M 201.90167,69.122515 H 455.1623 v 5.85308 H 201.90167 Z"
     id="path177"
     inkscape:connector-curvature="0"
     style="fill:#34525c;stroke-width:3.16896653" />
  <g
     id="Layer_1"
     transform="translate(0,14.81)" />
  <g
     id="Layer_4"
     transform="translate(0,14.81)" />
  <g
     id="Layer_6"
     transform="translate(0,14.81)" />
</svg>
