<?xml version="1.0" encoding="UTF-8" standalone="no"?>
<!-- Created with Inkscape (http://www.inkscape.org/) -->

<svg
   xmlns:dc="http://purl.org/dc/elements/1.1/"
   xmlns:cc="http://creativecommons.org/ns#"
   xmlns:rdf="http://www.w3.org/1999/02/22-rdf-syntax-ns#"
   xmlns:svg="http://www.w3.org/2000/svg"
   xmlns="http://www.w3.org/2000/svg"
   xmlns:sodipodi="http://sodipodi.sourceforge.net/DTD/sodipodi-0.dtd"
   xmlns:inkscape="http://www.inkscape.org/namespaces/inkscape"
   width="500"
   height="310"
   viewBox="0 0 132.29167 82.020829"
   version="1.1"
   id="svg4216"
   inkscape:version="0.92.3 (2405546, 2018-03-11)"
   sodipodi:docname="services2.svg">
  <defs
     id="defs4210" />
  <sodipodi:namedview
     id="base"
     pagecolor="#ffffff"
     bordercolor="#666666"
     borderopacity="1.0"
     inkscape:pageopacity="0.0"
     inkscape:pageshadow="2"
     inkscape:zoom="1.0074671"
     inkscape:cx="400"
     inkscape:cy="242.37175"
     inkscape:document-units="px"
     inkscape:current-layer="layer1"
     showgrid="false"
     units="px"
     inkscape:window-width="1280"
     inkscape:window-height="751"
     inkscape:window-x="0"
     inkscape:window-y="0"
     inkscape:window-maximized="1"
     showguides="true"
     inkscape:guide-bbox="true" />
  <metadata
     id="metadata4213">
    <rdf:RDF>
      <cc:Work
         rdf:about="">
        <dc:format>image/svg+xml</dc:format>
        <dc:type
           rdf:resource="http://purl.org/dc/dcmitype/StillImage" />
        <dc:title></dc:title>
      </cc:Work>
    </rdf:RDF>
  </metadata>
  <g
     inkscape:label="Layer 1"
     inkscape:groupmode="layer"
     id="layer1"
     transform="translate(0,-214.97917)">
    <path
       inkscape:connector-curvature="0"
       style="fill:#34525c;stroke-width:0.82796413"
       d="M 9.6662208,238.84614 H 128.88394 v 56.32392 H 9.6662208 Z"
       id="path9" />
    <path
       inkscape:connector-curvature="0"
       style="fill:#ffffff;stroke:#34525c;stroke-width:1.65592825;stroke-miterlimit:10"
       d="M 4.1718504,235.59387 H 123.38957 v 56.32392 H 4.1718504 Z"
       stroke-miterlimit="10"
       id="path53" />
    <path
       inkscape:connector-curvature="0"
       style="fill:#e6e6e6;stroke-width:0.82796413"
       d="M 4.9079026,236.3523 H 122.65102 v 10.48698 H 4.9079026 Z"
       id="path55" />
    <path
       inkscape:connector-curvature="0"
       style="fill:#ffffff;stroke:#34525c;stroke-width:1.65592825;stroke-miterlimit:10"
       d="m 12.747067,241.58088 a 1.9929098,1.9929098 0 0 1 -1.992913,1.99293 1.9929098,1.9929098 0 0 1 -1.9929082,-1.99293 1.9929098,1.9929098 0 0 1 1.9929082,-1.99291 1.9929098,1.9929098 0 0 1 1.992913,1.99291 z"
       stroke-miterlimit="10"
       id="path57" />
    <path
       inkscape:connector-curvature="0"
       style="fill:#ffffff;stroke:#34525c;stroke-width:1.65592825;stroke-miterlimit:10"
       d="m 20.2567,241.58088 a 1.9920819,1.9920819 0 0 1 -1.99208,1.99209 1.9920819,1.9920819 0 0 1 -1.992084,-1.99209 1.9920819,1.9920819 0 0 1 1.992084,-1.99206 1.9920819,1.9920819 0 0 1 1.99208,1.99206 z"
       stroke-miterlimit="10"
       id="path59" />
    <path
       inkscape:connector-curvature="0"
       style="fill:#ffffff;stroke:#34525c;stroke-width:1.65592825;stroke-miterlimit:10"
       d="m 27.767157,241.58088 a 1.9912539,1.9912539 0 0 1 -1.991255,1.99128 1.9912539,1.9912539 0 0 1 -1.991254,-1.99128 1.9912539,1.9912539 0 0 1 1.991254,-1.99125 1.9912539,1.9912539 0 0 1 1.991255,1.99125 z"
       stroke-miterlimit="10"
       id="path61" />
    <path
       inkscape:connector-curvature="0"
       d="m 86.9012,256.71276 h 24.63358 V 281.8299 H 86.9012 Z"
       stroke-miterlimit="10"
       style="fill:#7f7f7f;stroke:#34525c;stroke-width:1.65592825;stroke-linecap:round;stroke-linejoin:round;stroke-miterlimit:10"
       id="path69" />
    <path
       inkscape:connector-curvature="0"
       style="fill:#ffffff;stroke:#34525c;stroke-width:1.65592825;stroke-linecap:round;stroke-linejoin:round;stroke-miterlimit:10"
       d="m 86.9012,256.71276 24.63358,25.11631"
       stroke-miterlimit="10"
       id="path71" />
    <path
       inkscape:connector-curvature="0"
       style="fill:#ffffff;stroke:#34525c;stroke-width:1.65592825;stroke-linecap:round;stroke-linejoin:round;stroke-miterlimit:10"
       d="m 86.9012,281.82907 24.63358,-25.11631"
       stroke-miterlimit="10"
       id="path73" />
    <path
       inkscape:connector-curvature="0"
       style="fill:#ffffff;stroke:#34525c;stroke-width:1.65592825;stroke-miterlimit:10"
       stroke-miterlimit="10"
       d="M 97.667211,240.56167 H 79.720264 c -1.23367,0 -2.242958,-1.00927 -2.242958,-2.24379 v -11.72065 c 0,-0.72944 0.336154,-1.40175 0.95216,-1.84967 l 10.26344,-7.17929 10.263448,7.17929 c 0.61683,0.39244 0.95215,1.12106 0.95215,1.84967 v 11.72065 c 8.4e-4,1.23533 -1.00928,2.24379 -2.241293,2.24379 z"
       id="path135" />
    <path
       inkscape:connector-curvature="0"
       style="fill:#ffffff;stroke:#34525c;stroke-width:1.65592825;stroke-miterlimit:10"
       d="m 81.289253,220.3428 h 14.808964 v 15.73215 H 81.289253 Z"
       stroke-miterlimit="10"
       id="path137" />
    <path
       inkscape:connector-curvature="0"
       d="m 79.633324,221.9987 h 14.808967 v 15.73216 H 79.633324 Z"
       style="fill:#ff5d4c;stroke-width:0.82796413"
       id="path139" />
    <path
       inkscape:connector-curvature="0"
       style="fill:none;stroke:#34525c;stroke-width:1.65592825;stroke-miterlimit:10"
       d="m 81.289253,220.3428 h 14.808964 v 15.73215 H 81.289253 Z"
       stroke-miterlimit="10"
       id="path141" />
    <path
       inkscape:connector-curvature="0"
       style="fill:#ffffff;stroke:#34525c;stroke-width:1.65592825;stroke-linejoin:round;stroke-miterlimit:10"
       stroke-miterlimit="10"
       d="M 97.667211,240.56167 H 79.720264 c -1.23367,0 -2.242958,-1.00927 -2.242958,-2.24379 V 227.1023 l 11.21643,7.29186 11.215608,-7.29186 v 11.21643 c 0,1.23448 -1.01012,2.24294 -2.242133,2.24294 z"
       id="path143" />
    <path
       inkscape:connector-curvature="0"
       d="M 15.230122,256.30705 H 46.47335 v 20.68173 H 15.230122 Z"
       style="fill:#ff5d4c;stroke-width:0.82796413"
       id="path211" />
    <path
       inkscape:connector-curvature="0"
       style="fill:#f1f2f2;stroke-width:0.82796413"
       d="M 15.230122,276.98878 H 46.47335 v 4.84112 H 15.230122 Z"
       id="path213" />
    <path
       inkscape:connector-curvature="0"
       style="fill:#34525c;stroke-width:0.82796413"
       d="M 46.47336,282.71167 H 15.230131 c -0.486843,0 -0.8793,-0.39492 -0.8793,-0.88096 v -4.84193 c 0,-0.48601 0.393286,-0.87931 0.8793,-0.87931 H 46.47336 c 0.487669,0 0.880126,0.3933 0.880126,0.87931 v 4.84112 c 8.25e-4,0.48685 -0.392457,0.88177 -0.880126,0.88177 z m -30.363103,-1.76108 h 29.482976 v -3.08084 H 16.110257 Z"
       id="path215" />
    <path
       inkscape:connector-curvature="0"
       style="fill:#231f20;stroke-width:0.82796413"
       d="m 27.551068,271.48944 c -0.162287,0 -0.327048,-0.0463 -0.470287,-0.13737 -0.255006,-0.1599 -0.409013,-0.44129 -0.409013,-0.74187 v -6.16004 c 0,-0.30229 0.154838,-0.58206 0.409013,-0.74434 0.254194,-0.15992 0.572123,-0.18057 0.846179,-0.0513 l 6.54506,3.08002 c 0.308832,0.14489 0.505885,0.45619 0.505885,0.79731 0,0.3403 -0.197053,0.64997 -0.505885,0.7957 l -6.54506,3.07918 c -0.120879,0.0553 -0.248405,0.0829 -0.375892,0.0829 z m 0.880952,-5.6525 v 3.38635 l 3.598331,-1.69317 z"
       id="path217" />
    <path
       inkscape:connector-curvature="0"
       style="fill:#34525c;stroke-width:0.82796413"
       d="M 15.230122,255.4286 H 46.47335 v 1.75942 H 15.230122 Z"
       id="path219" />
    <path
       inkscape:connector-curvature="0"
       style="fill:#34525c;stroke-width:0.82796413"
       d="m 56.045455,258.18821 h 9.798127 v 1.52923 h -9.798127 z"
       id="path221" />
    <path
       inkscape:connector-curvature="0"
       style="fill:#34525c;stroke-width:0.82796413"
       d="m 56.045455,263.15599 h 23.01078 v 1.52923 h -23.01078 z"
       id="path223" />
    <path
       inkscape:connector-curvature="0"
       style="fill:#34525c;stroke-width:0.82796413"
       d="m 56.045455,268.12294 h 14.488543 v 1.53007 H 56.045455 Z"
       id="path225" />
    <path
       inkscape:connector-curvature="0"
       style="fill:#34525c;stroke-width:0.82796413"
       d="m 73.467484,268.12294 h 5.72703 v 1.53007 h -5.72703 z"
       id="path227" />
    <path
       inkscape:connector-curvature="0"
       style="fill:#34525c;stroke-width:0.82796413"
       d="m 56.183732,273.09072 h 12.88478 v 1.52926 h -12.88478 z"
       id="path229" />
    <path
       inkscape:connector-curvature="0"
       style="fill:#34525c;stroke-width:0.82796413"
       d="m 64.842575,273.09072 h 14.214486 v 1.52926 H 64.842575 Z"
       id="path231" />
    <path
       inkscape:connector-curvature="0"
       style="fill:#34525c;stroke-width:0.82796413"
       d="m 56.045455,278.0585 h 17.422021 v 1.52926 H 56.045455 Z"
       id="path233" />
    <path
       inkscape:connector-curvature="0"
       style="fill:#34525c;stroke-width:0.82796413"
       d="m 64.842575,258.18821 h 14.214486 v 1.52923 H 64.842575 Z"
       id="path235" />
  </g>
</svg>
