<?xml version="1.0" encoding="UTF-8" standalone="no"?>
<!-- Created with Inkscape (http://www.inkscape.org/) -->

<svg
   xmlns:dc="http://purl.org/dc/elements/1.1/"
   xmlns:cc="http://creativecommons.org/ns#"
   xmlns:rdf="http://www.w3.org/1999/02/22-rdf-syntax-ns#"
   xmlns:svg="http://www.w3.org/2000/svg"
   xmlns="http://www.w3.org/2000/svg"
   xmlns:sodipodi="http://sodipodi.sourceforge.net/DTD/sodipodi-0.dtd"
   xmlns:inkscape="http://www.inkscape.org/namespaces/inkscape"
   width="500"
   height="425"
   viewBox="0 0 132.29166 112.44792"
   version="1.1"
   id="svg4012"
   inkscape:version="0.92.3 (2405546, 2018-03-11)"
   sodipodi:docname="services1.svg">
  <defs
     id="defs4006" />
  <sodipodi:namedview
     id="base"
     pagecolor="#ffffff"
     bordercolor="#666666"
     borderopacity="1.0"
     inkscape:pageopacity="0.0"
     inkscape:pageshadow="2"
     inkscape:zoom="0.93303299"
     inkscape:cx="400"
     inkscape:cy="262.44541"
     inkscape:document-units="px"
     inkscape:current-layer="layer1"
     showgrid="false"
     units="px"
     width="500px"
     inkscape:window-width="1280"
     inkscape:window-height="751"
     inkscape:window-x="0"
     inkscape:window-y="0"
     inkscape:window-maximized="1"
     showguides="true"
     inkscape:guide-bbox="true" />
  <metadata
     id="metadata4009">
    <rdf:RDF>
      <cc:Work
         rdf:about="">
        <dc:format>image/svg+xml</dc:format>
        <dc:type
           rdf:resource="http://purl.org/dc/dcmitype/StillImage" />
        <dc:title></dc:title>
      </cc:Work>
    </rdf:RDF>
  </metadata>
  <g
     inkscape:label="Layer 1"
     inkscape:groupmode="layer"
     id="layer1"
     transform="translate(0,-184.55208)">
    <path
       inkscape:connector-curvature="0"
       style="fill:#34525c;stroke-width:0.82714844"
       d="M 10.038108,207.97032 H 129.13839 v 88.46932 H 10.038108 Z"
       id="path3" />
    <path
       inkscape:connector-curvature="0"
       style="fill:#ffffff;stroke:#34525c;stroke-width:1.65429688;stroke-miterlimit:10"
       d="M 4.5499762,204.72129 H 123.65027 v 88.46932 H 4.5499762 Z"
       stroke-miterlimit="10"
       id="path11" />
    <path
       inkscape:connector-curvature="0"
       style="fill:#e6e6e6;stroke-width:0.82714844"
       d="M 5.2844841,205.47894 H 122.91159 v 10.47668 H 5.2844841 Z"
       id="path13" />
    <path
       inkscape:connector-curvature="0"
       style="fill:#ffffff;stroke:#34525c;stroke-width:1.65429688;stroke-miterlimit:10"
       d="m 13.115926,210.70155 a 1.9909463,1.9909463 0 0 1 -1.990947,1.99097 1.9909463,1.9909463 0 0 1 -1.9909456,-1.99097 1.9909463,1.9909463 0 0 1 1.9909456,-1.99094 1.9909463,1.9909463 0 0 1 1.990947,1.99094 z"
       stroke-miterlimit="10"
       id="path15" />
    <path
       inkscape:connector-curvature="0"
       style="fill:#ffffff;stroke:#34525c;stroke-width:1.65429688;stroke-miterlimit:10"
       d="m 20.618991,210.70155 a 1.9901192,1.9901192 0 0 1 -1.990121,1.99013 1.9901192,1.9901192 0 0 1 -1.990118,-1.99013 1.9901192,1.9901192 0 0 1 1.990118,-1.9901 1.9901192,1.9901192 0 0 1 1.990121,1.9901 z"
       stroke-miterlimit="10"
       id="path17" />
    <path
       inkscape:connector-curvature="0"
       style="fill:#ffffff;stroke:#34525c;stroke-width:1.65429688;stroke-miterlimit:10"
       d="m 28.121228,210.70155 a 1.9892921,1.9892921 0 0 1 -1.98929,1.98932 1.9892921,1.9892921 0 0 1 -1.989293,-1.98932 1.9892921,1.9892921 0 0 1 1.989293,-1.98929 1.9892921,1.9892921 0 0 1 1.98929,1.98929 z"
       stroke-miterlimit="10"
       id="path19" />
    <path
       inkscape:connector-curvature="0"
       style="fill:#ffffff;stroke:#34525c;stroke-width:1.65429688;stroke-miterlimit:10"
       d="M 8.5269074,218.51066 H 119.71303 v 7.78265 H 8.5269074 Z"
       stroke-miterlimit="10"
       id="path21" />
    <path
       inkscape:connector-curvature="0"
       style="fill:#34525c;stroke-width:0.82714844"
       d="m 32.857477,229.86163 h 16.598389 v 1.52775 H 32.857477 Z"
       id="path23" />
    <path
       inkscape:connector-curvature="0"
       style="fill:#34525c;stroke-width:0.82714844"
       d="m 53.608149,229.86163 h 66.104881 v 1.52775 H 53.608149 Z"
       id="path25" />
    <path
       inkscape:connector-curvature="0"
       d="m 91.78022,259.57032 v 1.48887 h -0.173816 c -0.821642,0.0125 -1.480591,0.22319 -1.97688,0.6369 -0.50182,0.41357 -0.802342,0.98707 -0.901598,1.72049 0.485253,-0.49079 1.097333,-0.73617 1.836284,-0.73617 0.794071,0 1.425444,0.28387 1.894145,0.85197 0.468725,0.56797 0.703091,1.31517 0.703091,2.24156 0,0.59555 -0.129421,1.1332 -0.388769,1.61295 -0.25917,0.47972 -0.623121,0.85471 -1.091834,1.12491 -0.468726,0.2648 -1.000836,0.39703 -1.596388,0.39703 -0.959503,0 -1.734281,-0.33363 -2.324284,-1.00086 -0.590053,-0.66723 -0.885038,-1.56054 -0.885038,-2.67996 v -0.64516 c 0,-0.99258 0.187578,-1.86661 0.562439,-2.62206 0.369456,-0.76099 0.904357,-1.34825 1.604664,-1.76183 0.700333,-0.41909 1.513691,-0.62864 2.440081,-0.62864 h 0.297934 m -1.770064,4.56586 c -0.292309,0 -0.556979,0.0744 -0.794072,0.22321 -0.237276,0.15442 -0.413598,0.35845 -0.529395,0.61208 v 0.54593 c 0,0.60659 0.121296,1.0808 0.363957,1.4227 0.237289,0.34188 0.570722,0.51282 1.000861,0.51282 0.385997,0 0.700308,-0.15444 0.942931,-0.46319 0.237283,-0.30887 0.355668,-0.70584 0.355668,-1.19109 0,-0.50182 -0.11848,-0.90435 -0.355668,-1.20763 -0.242592,-0.30325 -0.570722,-0.45493 -0.984282,-0.45493 z m 4.332232,0.16537 0.521075,-4.6403 h 5.111796 v 1.50541 h -3.622935 l -0.223204,1.96862 c 0.430139,-0.23165 0.885064,-0.34739 1.364819,-0.34739 0.87126,0 1.55226,0.27011 2.04305,0.8106 0.49629,0.53487 0.74442,1.2876 0.74442,2.2581 0,0.59005 -0.12411,1.11667 -0.37221,1.57986 -0.24822,0.46871 -0.60383,0.83266 -1.06701,1.09183 -0.46872,0.25353 -1.017406,0.38049 -1.646026,0.38049 -0.551435,0 -1.064265,-0.11036 -1.538508,-0.33085 -0.46872,-0.22603 -0.840922,-0.5404 -1.116659,-0.94297 -0.270117,-0.40803 -0.413573,-0.87125 -0.430107,-1.3896 h 1.786637 c 0.03879,0.38049 0.171,0.67552 0.397038,0.88506 0.231645,0.2151 0.529358,0.3226 0.893322,0.3226 0.413567,0 0.730649,-0.14881 0.951203,-0.44668 0.22072,-0.2923 0.33089,-0.70858 0.33089,-1.24899 0,-0.51836 -0.12692,-0.91538 -0.38049,-1.19109 -0.259169,-0.27573 -0.620374,-0.41358 -1.083582,-0.41358 -0.430114,0 -0.780277,0.11319 -1.050483,0.33914 l -0.173816,0.16538 z m 6.904681,-2.88673 c 0,-0.56247 0.18195,-1.01741 0.54591,-1.36482 0.36395,-0.34739 0.84092,-0.52108 1.43097,-0.52108 0.59553,0 1.07528,0.17102 1.43922,0.51283 0.36395,0.34739 0.54593,0.81611 0.54593,1.40615 v 0.44667 c 0,0.56798 -0.18195,1.02291 -0.54593,1.36479 -0.36394,0.34188 -0.84093,0.51283 -1.43095,0.51283 -0.59004,0 -1.06978,-0.17381 -1.43924,-0.52112 -0.36396,-0.34188 -0.54591,-0.80509 -0.54591,-1.38961 v -0.44664 m 1.19934,0.47975 c 0,0.25354 0.0745,0.45493 0.22323,0.6038 0.14349,0.15443 0.33084,0.23166 0.56246,0.23166 0.23697,0 0.4246,-0.0773 0.56244,-0.23166 0.13787,-0.15444 0.20696,-0.36118 0.20696,-0.62036 v -0.46319 c 0,-0.24822 -0.0687,-0.44942 -0.20696,-0.60384 -0.13787,-0.15974 -0.32809,-0.23978 -0.57071,-0.23978 -0.23166,0 -0.41908,0.0773 -0.56244,0.23166 -0.14351,0.15444 -0.2151,0.3667 -0.2151,0.63691 v 0.45493 m 3.15968,4.65687 c 0,-0.56798 0.18476,-1.02294 0.55419,-1.36482 0.36949,-0.34739 0.84646,-0.52108 1.43097,-0.52108 0.59005,0 1.0698,0.171 1.43925,0.51281 0.36396,0.3419 0.5459,0.81061 0.5459,1.40616 v 0.45493 c 0,0.55693 -0.17912,1.00911 -0.53764,1.35653 -0.35843,0.34188 -0.83818,0.51283 -1.43922,0.51283 -0.60108,0 -1.08356,-0.17381 -1.4475,-0.52111 -0.36397,-0.34739 -0.54595,-0.80511 -0.54595,-1.37307 v -0.46318 m 1.20767,0.488 c 0,0.22602 0.0744,0.42185 0.22321,0.58726 0.14881,0.16007 0.33636,0.23978 0.56245,0.23978 0.51282,0 0.76924,-0.28136 0.76924,-0.84368 v -0.47146 c 0,-0.25354 -0.0716,-0.45772 -0.21509,-0.61209 -0.14349,-0.1488 -0.33085,-0.2232 -0.56244,-0.2232 -0.23728,0 -0.42461,0.0744 -0.56247,0.2232 -0.1435,0.15443 -0.21509,0.36393 -0.21509,0.62863 v 0.47146 m -3.22586,1.05876 -0.87678,-0.47146 4.45006,-7.13002 0.88503,0.47146 z"
       style="white-space:pre;fill:#0e3c54;stroke-width:0.82714844"
       id="path145" />
    <path
       inkscape:connector-curvature="0"
       style="fill:#ffffff;stroke:#0e3c54;stroke-width:1.65429688;stroke-miterlimit:10"
       d="m 15.127551,239.45405 h 54.613311 v 10.13011 H 15.127551 Z"
       stroke-miterlimit="10"
       id="path153" />
    <path
       inkscape:connector-curvature="0"
       style="fill:#ffffff;stroke:#0e3c54;stroke-width:1.65429688;stroke-miterlimit:10"
       d="m 15.127551,249.58416 h 54.613311 v 35.46149 H 15.127551 Z"
       stroke-miterlimit="10"
       id="path155" />
    <path
       inkscape:connector-curvature="0"
       d="m 23.260077,277.86436 h 43.255731 v -1.43594 l -4.300352,-4.78338 -5.378942,-15.49166 -6.856232,4.9662 -6.484844,-3.42356 -7.206947,6.96373 -5.153958,-11.40138 -7.874456,5.99682 z"
       style="fill:#ff5d4c;stroke-width:0.82714844"
       id="path157" />
    <path
       inkscape:connector-curvature="0"
       style="fill:none;stroke:#34525c;stroke-width:1.65429688;stroke-miterlimit:10"
       d="m 21.198818,280.51868 h 43.255737 v -1.43509 l -4.299523,-4.78342 -5.378954,-15.49166 -6.856221,4.96621 -6.484854,-3.42357 -7.207762,6.96377 -5.153143,-11.40142 -7.87528,5.99683 z"
       stroke-miterlimit="10"
       id="path159" />
    <path
       inkscape:connector-curvature="0"
       style="fill:#ffffff;stroke:#0e3c54;stroke-width:1.65429688;stroke-miterlimit:10"
       stroke-miterlimit="10"
       d="m 47.208507,244.57906 c 1.990115,0.10348 15.135983,0 15.135983,0"
       id="path161" />
    <path
       inkscape:connector-curvature="0"
       style="fill:#ffffff;stroke:#0e3c54;stroke-width:1.65429688;stroke-miterlimit:10"
       stroke-miterlimit="10"
       d="m 32.751605,244.57906 c 0.765934,0.10348 5.814853,0 5.814853,0"
       id="path163" />
    <path
       inkscape:connector-curvature="0"
       style="fill:#ffffff;stroke:#0e3c54;stroke-width:1.65429688;stroke-miterlimit:10"
       stroke-miterlimit="10"
       d="m 23.260077,244.57906 c 0.76511,0.10348 5.81403,0 5.81403,0"
       id="path165" />
    <path
       inkscape:connector-curvature="0"
       style="fill:#ffffff;stroke:#0e3c54;stroke-width:1.65429688;stroke-miterlimit:10"
       stroke-miterlimit="10"
       d="M 63.148754,252.65352"
       id="path167" />
    <path
       inkscape:connector-curvature="0"
       style="fill:#34525c;stroke-width:0.82714844"
       d="m 75.231452,249.19207 c -0.0097,0.87598 0.434271,1.62204 1.034784,2.04968 0.600526,0.43674 1.325891,0.62535 2.041404,0.62616 0.716303,-6.1e-4 1.440877,-0.18945 2.04058,-0.6245 0.601329,-0.42764 1.043852,-1.17536 1.033943,-2.0505 6.14e-4,-0.46486 -0.09347,-0.89166 -0.291056,-1.25395 -0.354049,-0.64189 -0.954536,-0.9661 -1.493031,-1.14396 -0.814712,-0.26635 -1.64849,-0.3325 -2.166287,-0.53433 -0.261354,-0.096 -0.415225,-0.20195 -0.50206,-0.31201 -0.08446,-0.11004 -0.157877,-0.25227 -0.162888,-0.60298 0.01253,-0.39621 0.14381,-0.60298 0.408599,-0.80978 0.266359,-0.20008 0.694809,-0.33086 1.132383,-0.32838 0.436739,-0.003 0.865999,0.12818 1.1307,0.32838 0.264796,0.20757 0.397032,0.41357 0.406967,0.80978 0,0.42517 0.344075,0.76924 0.769241,0.76924 0.42514,0 0.767584,-0.34407 0.767584,-0.76924 0.0097,-0.87512 -0.432614,-1.62285 -1.033937,-2.05049 -0.599677,-0.43674 -1.324264,-0.62368 -2.040555,-0.62615 -0.715494,0.003 -1.440903,0.18945 -2.041435,0.62615 -0.602139,0.42845 -1.045503,1.17537 -1.03474,2.05049 -0.0032,0.46403 0.09347,0.89251 0.29105,1.25478 0.35401,0.64187 0.956181,0.96448 1.491335,1.14314 0.817231,0.26541 1.651838,0.33331 2.169603,0.53433 0.258854,0.097 0.413598,0.20259 0.500446,0.31266 0.08445,0.11004 0.156307,0.25134 0.161319,0.60217 -0.0097,0.39619 -0.142247,0.60298 -0.406973,0.8106 -0.264796,0.20009 -0.693967,0.32919 -1.1307,0.32754 -0.437568,0.003 -0.86603,-0.12661 -1.13237,-0.32754 -0.264796,-0.20851 -0.397045,-0.41522 -0.408612,-0.8106 0,-0.42517 -0.34245,-0.76843 -0.767584,-0.76843 -0.424355,0 -0.767615,0.34326 -0.767615,0.76759 z"
       id="path179" />
    <path
       inkscape:connector-curvature="0"
       style="fill:#34525c;stroke-width:0.82714844"
       d="m 77.53674,242.65763 v 0.7808 c 0,0.42516 0.344063,0.76843 0.768425,0.76843 0.425141,0 0.7684,-0.34327 0.7684,-0.76843 v -0.7808 c 0,-0.42517 -0.343259,-0.77009 -0.7684,-0.77009 -0.424362,0 -0.768425,0.34492 -0.768425,0.77009"
       id="path181" />
    <path
       inkscape:connector-curvature="0"
       style="fill:#34525c;stroke-width:0.82714844"
       d="m 77.53674,251.10033 v 0.7808 c 0,0.42517 0.344063,0.76843 0.768425,0.76843 0.425141,0 0.7684,-0.34326 0.7684,-0.76843 v -0.7808 c 0,-0.42517 -0.343259,-0.76844 -0.7684,-0.76844 -0.424362,0 -0.768425,0.34327 -0.768425,0.76844"
       id="path183" />
    <path
       inkscape:connector-curvature="0"
       style="fill:#34525c;stroke-width:0.82714844"
       d="m 107.86164,282.44263 c -0.01,0.87594 0.43426,1.62204 1.03479,2.04969 0.60048,0.43673 1.32589,0.6253 2.0414,0.62614 0.71631,-6.2e-4 1.44088,-0.18945 2.04054,-0.62448 0.60137,-0.42764 1.04389,-1.17541 1.03394,-2.05053 6.1e-4,-0.46484 -0.0935,-0.89167 -0.29105,-1.25395 -0.35401,-0.64187 -0.95453,-0.96612 -1.493,-1.14394 -0.81473,-0.26636 -1.64849,-0.33253 -2.16628,-0.53434 -0.26136,-0.096 -0.41523,-0.20195 -0.50211,-0.31199 -0.0845,-0.11004 -0.15787,-0.25229 -0.16288,-0.60299 0.0125,-0.39622 0.14381,-0.60301 0.40865,-0.80978 0.26635,-0.20008 0.69479,-0.33088 1.13233,-0.32839 0.43674,-0.003 0.86603,0.12817 1.13073,0.32839 0.2648,0.20757 0.39704,0.41356 0.40695,0.80978 0,0.42513 0.3441,0.76924 0.76927,0.76924 0.42513,0 0.76758,-0.34411 0.76758,-0.76924 0.01,-0.87512 -0.43261,-1.62289 -1.03394,-2.05053 -0.59966,-0.43672 -1.32427,-0.62365 -2.04059,-0.62614 -0.71546,0.003 -1.44087,0.18944 -2.04139,0.62614 -0.60217,0.42849 -1.04551,1.17541 -1.03476,2.05053 -0.003,0.46403 0.0935,0.89247 0.29107,1.25477 0.35401,0.64186 0.95618,0.96445 1.49133,1.14311 0.81723,0.26541 1.65181,0.33335 2.1696,0.53433 0.25886,0.097 0.41358,0.20259 0.50044,0.31269 0.0845,0.11004 0.15632,0.25136 0.16132,0.60215 -0.01,0.39621 -0.14224,0.60298 -0.40697,0.8106 -0.26478,0.20007 -0.69395,0.32922 -1.13069,0.32757 -0.43758,0.003 -0.86603,-0.12662 -1.13239,-0.32757 -0.26479,-0.20852 -0.39703,-0.41523 -0.4086,-0.8106 0,-0.42513 -0.34244,-0.76843 -0.7676,-0.76843 -0.42433,-6.1e-4 -0.76759,0.34245 -0.76759,0.76762 z"
       id="path185" />
    <path
       inkscape:connector-curvature="0"
       style="fill:#34525c;stroke-width:0.82714844"
       d="m 110.16693,275.90734 v 0.78081 c 0,0.42517 0.34407,0.76842 0.76839,0.76842 0.42517,0 0.76842,-0.34325 0.76842,-0.76842 v -0.78081 c 0,-0.42517 -0.34325,-0.77008 -0.76842,-0.77008 -0.42432,6.1e-4 -0.76839,0.34575 -0.76839,0.77008"
       id="path187" />
    <path
       inkscape:connector-curvature="0"
       style="fill:#34525c;stroke-width:0.82714844"
       d="m 110.16693,284.35004 v 0.78083 c 0,0.42514 0.34407,0.7684 0.76839,0.7684 0.42517,0 0.76842,-0.34326 0.76842,-0.7684 v -0.78083 c 0,-0.42517 -0.34325,-0.76843 -0.76842,-0.76843 -0.42432,6.1e-4 -0.76839,0.34411 -0.76839,0.76843"
       id="path189" />
    <g
       transform="matrix(0.82714843,0,0,0.82714843,-8.05233,173.75957)"
       id="g197">
      <g
         id="g195">
        <path
           inkscape:connector-curvature="0"
           d="m 97.128,19.99 c 0,-1.65 -1.35,-3 -3,-3 H 66.232 c -1.65,0 -3,1.35 -3,3 v 17 c 0,1.65 1.35,3 3,3 H 77.18 c 1.65,0 3,1.35 3,3 v 1.867 c 0,1.65 1.018,2.113 2.261,1.028 l 4.498,-3.923 C 88.182,40.877 90.55,39.99 92.2,39.99 h 1.928 c 1.65,0 3,-1.35 3,-3 z"
           style="fill:#7f7f7f"
           id="path193" />
      </g>
    </g>
    <g
       transform="matrix(0.82714843,0,0,0.82714843,-7.6678321,174.14407)"
       id="g203">
      <g
         id="g201">
        <path
           style="fill:none;stroke:#34525c;stroke-width:2;stroke-miterlimit:10"
           inkscape:connector-curvature="0"
           stroke-miterlimit="10"
           d="m 95.128,16.99 c 0,-1.65 -1.35,-3 -3,-3 H 64.232 c -1.65,0 -3,1.35 -3,3 v 17 c 0,1.65 1.35,3 3,3 H 75.18 c 1.65,0 3,1.35 3,3 v 1.867 c 0,1.65 1.018,2.113 2.261,1.028 l 4.498,-3.923 C 86.182,37.877 88.55,36.99 90.2,36.99 h 1.928 c 1.65,0 3,-1.35 3,-3 z"
           id="path199" />
      </g>
    </g>
    <path
       inkscape:connector-curvature="0"
       style="fill:#34525c;stroke-width:0.82714844"
       d="m 57.383957,190.83935 h 9.510559 v 2.00255 h -9.510559 z"
       id="path205" />
    <path
       inkscape:connector-curvature="0"
       style="fill:#34525c;stroke-width:0.82714844"
       d="m 47.370495,190.83935 h 7.010085 v 2.00255 h -7.010085 z"
       id="path207" />
    <path
       inkscape:connector-curvature="0"
       style="fill:#34525c;stroke-width:0.82714844"
       d="m 46.986001,197.73354 h 19.524018 v 2.00085 H 46.986001 Z"
       id="path209" />
    <path
       inkscape:connector-curvature="0"
       style="fill:#34525c;stroke-width:0.82714844"
       d="M 88.713979,239.70965 H 99.48512 v 1.52777 H 88.713979 Z"
       id="path237" />
    <path
       inkscape:connector-curvature="0"
       style="fill:#34525c;stroke-width:0.82714844"
       d="M 88.713979,244.67254 H 114.0115 v 1.52776 H 88.713979 Z"
       id="path239" />
    <path
       inkscape:connector-curvature="0"
       style="fill:#34525c;stroke-width:0.82714844"
       d="m 88.713979,249.63462 h 15.928401 v 1.52858 H 88.713979 Z"
       id="path241" />
    <path
       inkscape:connector-curvature="0"
       style="fill:#34525c;stroke-width:0.82714844"
       d="m 98.38585,239.70965 h 15.6273 v 1.52777 h -15.6273 z"
       id="path243" />
    <path
       inkscape:connector-curvature="0"
       style="fill:none;stroke:#34525c;stroke-width:1.65429688;stroke-linecap:round;stroke-linejoin:round;stroke-miterlimit:10"
       d="m 78.305982,257.88625 v 11.992 l 11.459316,11.45928 h 13.798492"
       stroke-miterlimit="10"
       id="path245" />
  </g>
</svg>
