<?xml version="1.0" encoding="UTF-8" standalone="no"?>
<!-- Created with Inkscape (http://www.inkscape.org/) -->

<svg
   xmlns:dc="http://purl.org/dc/elements/1.1/"
   xmlns:cc="http://creativecommons.org/ns#"
   xmlns:rdf="http://www.w3.org/1999/02/22-rdf-syntax-ns#"
   xmlns:svg="http://www.w3.org/2000/svg"
   xmlns="http://www.w3.org/2000/svg"
   xmlns:sodipodi="http://sodipodi.sourceforge.net/DTD/sodipodi-0.dtd"
   xmlns:inkscape="http://www.inkscape.org/namespaces/inkscape"
   version="1.1"
   id="svg2"
   width="169"
   height="112"
   viewBox="0 0 169 112"
   sodipodi:docname="se_logo3.svg"
   inkscape:version="0.92.4 (5da689c313, 2019-01-14)">
  <metadata
     id="metadata8">
    <rdf:RDF>
      <cc:Work
         rdf:about="">
        <dc:format>image/svg+xml</dc:format>
        <dc:type
           rdf:resource="http://purl.org/dc/dcmitype/StillImage" />
        <dc:title />
      </cc:Work>
    </rdf:RDF>
  </metadata>
  <defs
     id="defs6" />
  <sodipodi:namedview
     pagecolor="#ffffff"
     bordercolor="#666666"
     borderopacity="1"
     objecttolerance="10"
     gridtolerance="10"
     guidetolerance="10"
     inkscape:pageopacity="0"
     inkscape:pageshadow="2"
     inkscape:window-width="1280"
     inkscape:window-height="740"
     id="namedview4"
     showgrid="false"
     inkscape:zoom="2.1071429"
     inkscape:cx="5.7203407"
     inkscape:cy="56.000001"
     inkscape:window-x="0"
     inkscape:window-y="0"
     inkscape:window-maximized="1"
     inkscape:current-layer="svg2" />
  <path
     style="fill:#000000;fill-opacity:1"
     d="m 55.541676,108.11802 c -5.51028,-1.39969 -9.54168,-6.60485 -9.54168,-12.31977 0,-4.20819 2.59699,-9.45671 5.67816,-11.47557 3.72499,-2.44071 10.76402,-2.11347 14.87304,0.69144 11.7871,8.04613 2.92505,26.64348 -11.00952,23.1039 z"
     id="path827" />
  <path
     style="fill:#000000;fill-opacity:1"
     d="m 89.570756,100.09746 c 1.53704,-6.94218 2.84666,-9.36676 7.319,-13.55011 C 103.5775,80.29175 107.30582,79.65484 135,80.03699 l 22.5,0.31047 -0.34397,3.47404 C 156.42465,91.20817 151.7238,97.26179 144,100.76343 c -4.14406,1.87873 -6.49875,2.04184 -29.76905,2.06207 l -25.269054,0.022 z"
     id="path825" />
  <path
     style="fill:#000000;fill-opacity:1"
     d="m 77.990226,96.09746 c -0.0137,-5.27251 -3.94695,-13.09245 -8.77357,-17.443432 -6.95715,-6.271563 -8.73495,-6.806571 -22.61778,-6.806571 -19.81513,0 -26.62651,-2.372981 -35.04629,-12.209597 -9.7722597,-11.416686 -8.3144797,-30.345024 3.18569,-41.364122 7.92783,-7.596193 11.80434,-8.4262807 39.35071,-8.4262807 h 23.91101 l -0.022,2.2499997 c -0.0294,3.015624 -3.57899,10.688712 -6.2901,13.597318 -4.84419,5.197079 -9.24736,6.504298 -23.18793,6.884066 -14.91339,0.40627 -16.77411,0.685579 -18.93008,2.841546 -2.15128,2.151286 -1.97313,7.706812 0.33884,10.566286 1.82182,2.253258 2.63028,2.385758 17.75,2.909091 14.07456,0.487158 16.39886,0.818871 20.84124,2.974367 10.74101,5.21167 17.75988,16.37365 17.92032,28.498349 0.0648,4.89569 -0.53947,7.27869 -3.23299,12.75 -1.82196,3.70094 -3.73446,6.72898 -4.25,6.72898 -0.51553,0 -0.94173,-1.6875 -0.94711,-3.75 z"
     id="path823" />
  <path
     style="fill:#000000;fill-opacity:1"
     d="m 97.999996,66.213477 c 0,-6.829188 6.578834,-16.361551 13.444194,-19.479893 3.39933,-1.544019 6.68608,-1.845758 20.30581,-1.864165 16.19455,-0.02189 16.24997,-0.01429 16.24023,2.228038 -0.0168,3.863689 -4.62226,12.368751 -8.13262,15.018705 -6.64701,5.017801 -9.9435,5.731295 -26.47973,5.731295 -13.562974,0 -15.377884,-0.192843 -15.377884,-1.63398 z"
     id="path821" />
  <path
     style="fill:#ff5d4c;fill-opacity:1"
     d="m 93.021966,30.158913 c 0.0524,-6.713527 6.17031,-15.080352 13.478034,-18.432616 3.53954,-1.62369 6.90664,-1.8374437 29.25,-1.8568777 l 25.25,-0.02196 -0.022,2.2499997 c -0.0294,3.015624 -3.579,10.688712 -6.29011,13.597318 -1.20336,1.291025 -3.98793,3.316025 -6.18793,4.5 -3.74796,2.017044 -5.62248,2.172307 -29.75,2.464138 l -25.749964,0.311457 0.022,-2.811457 z"
     id="path817" />
</svg>
